<svg width="40" height="40" fill="none" xmlns="http://www.w3.org/2000/svg"><path fill-rule="evenodd" clip-rule="evenodd" d="M36.171 18H38a.667.667 0 00.667-.667V12a.667.667 0 00-.667-.667h-6.255l-1.078-2.157v-2.51A.667.667 0 0030 6h-4a.667.667 0 00-.667.667v2.666c0 .369.299.667.667.667h3.588l1.079 2.157V16a2 2 0 00-4 0v-1.333A.667.667 0 0026 14h-5.251l-2.082-.52V2.666A2.667 2.667 0 0016 0h-2.667a2.667 2.667 0 00-2.666 2.667V10H7.333a2 2 0 00-2 2v2H.667a.667.667 0 00-.472 1.138l1.529 1.529-1.529 1.528a.667.667 0 00.472 1.138h6.666a2 2 0 002-2v-2h1.334V22h-2a4.667 4.667 0 00-4.614 4H2a.667.667 0 00-.667.667v2.666c0 .369.299.667.667.667h2v1.333H.667A.667.667 0 000 32v2.667c0 .368.298.666.667.666H8a4.667 4.667 0 109.333 0h12a4.667 4.667 0 109.334 0h.666a.666.666 0 00.65-.816L36.171 18zm-9.504-2a2 2 0 104 0v14h-2v-.667a2 2 0 00-2-2V20a.667.667 0 00-.667-.667h-7.333v-1.812l1.838.459c.053.013.107.02.162.02H26a.667.667 0 00.667-.667V16zm2.666-7.333h-2.666V7.333h2.666v1.334zM4 34v-1.333H1.333V34H4zm0-5.333H2.667v-1.334H4v1.334zm33.333-16H36v4h1.333v-4zm-5.333 0h2.667v4H32v-4zm-4.667 16.666a.667.667 0 00-.666-.666H24V30h3.333v-.667zm-6.828-14.02c.053.014.107.02.162.02h4.666v1.334H20.75L16 15.479v-1.292l4.505 1.126zm-7.172-13.98c-.736 0-1.333.597-1.333 1.334v2.666h2V4c0-.368.299-.667.667-.667h2.666v-.666c0-.737-.597-1.334-1.333-1.334h-2.667zM12 6.667h2.667A.667.667 0 0015.333 6V4.667h2V6.17L12 7.77V6.667zm5.333 4V7.563L12 9.163v1.504h5.333zm0 1.333v1.146l-1.838-.46a.666.666 0 00-.828.647V16c0 .306.208.572.504.647l2.162.54v2.146H12V12h5.333zm8 15.333v-6.666H12V22h11.333c.369 0 .667.299.667.667v4.666h1.333zM8 17.333a.667.667 0 01-.667.667H2.276l.862-.862a.667.667 0 000-.943l-.862-.862H8v2zM6.667 12v2h4v-2.667H7.333a.667.667 0 00-.666.667zm6 26.667a3.337 3.337 0 01-3.334-3.334h1.334a2 2 0 104 0H16a3.337 3.337 0 01-3.333 3.334zm0-2.667a.667.667 0 00.666-.667H12c0 .369.299.667.667.667zm4.666-2H8v-6.667c0-.368.298-.666.667-.666h8c.368 0 .666.298.666.666V34zm1.334 0H20v-7.333a3.337 3.337 0 00-3.333-3.334h-8a3.337 3.337 0 00-3.334 3.334V34h1.334v-6.667a2 2 0 012-2h8a2 2 0 012 2V34zm1.26-10.667h2.74V30h-1.334v-3.333a4.651 4.651 0 00-1.406-3.334zM34 38.667a3.337 3.337 0 01-3.333-3.334H32a2 2 0 104 0h1.333A3.337 3.337 0 0134 38.667zM34 36a.667.667 0 00.667-.667h-1.334c0 .369.299.667.667.667zm-2-2v-4.667h1.333V28H32V18h2.8l3.692 16H32zm-10.667 0h9.334v-2.667h-9.334V34zM36 28h-1.333v1.333H36V28zM9.333 28h1.334v1.333H9.333V28zm4 0H12v1.333h1.333V28zm1.334 0H16v1.333h-1.333V28zm14-12.667a.667.667 0 110 1.334.667.667 0 010-1.334zM0 4.667h8.667V6H0V4.667zm9.333 2.666h-8v1.334h8V7.333z" fill="#495567"/></svg>